<svg xmlns="http://www.w3.org/2000/svg" xmlns:xlink="http://www.w3.org/1999/xlink" width="821.93" height="329.41" viewBox="0 0 821.93 329.41">
  <defs>
    <linearGradient id="linear-gradient" x1="0.5" y1="1" x2="0.5" gradientUnits="objectBoundingBox">
      <stop offset="0" stop-color="gray" stop-opacity="0.251"/>
      <stop offset="0.54" stop-color="gray" stop-opacity="0.122"/>
      <stop offset="1" stop-color="gray" stop-opacity="0.102"/>
    </linearGradient>
  </defs>
  <g id="sun" transform="translate(-60.26)">
    <rect id="Rectangle_26" data-name="Rectangle 26" width="200.86" height="21.69" rx="9.96" transform="translate(636.34 24.91)" fill="#f2f2f2"/>
    <rect id="Rectangle_27" data-name="Rectangle 27" width="200.86" height="21.69" rx="9.96" transform="translate(681.33 43.39)" fill="#f2f2f2"/>
    <rect id="Rectangle_28" data-name="Rectangle 28" width="200.86" height="21.69" rx="9.96" transform="translate(605 59.46)" fill="#f2f2f2"/>
    <rect id="Rectangle_29" data-name="Rectangle 29" width="200.86" height="21.69" rx="9.96" transform="translate(292.46 273.18)" fill="#f2f2f2"/>
    <rect id="Rectangle_30" data-name="Rectangle 30" width="200.86" height="21.69" rx="9.96" transform="translate(337.45 291.66)" fill="#f2f2f2"/>
    <rect id="Rectangle_31" data-name="Rectangle 31" width="200.86" height="21.69" rx="9.96" transform="translate(261.12 307.72)" fill="#f2f2f2"/>
    <rect id="Rectangle_32" data-name="Rectangle 32" width="200.86" height="21.69" rx="9.96" transform="translate(91.59 123.73)" fill="#f2f2f2"/>
    <rect id="Rectangle_33" data-name="Rectangle 33" width="200.86" height="21.69" rx="9.96" transform="translate(136.59 142.21)" fill="#f2f2f2"/>
    <rect id="Rectangle_34" data-name="Rectangle 34" width="200.86" height="21.69" rx="9.96" transform="translate(60.26 158.28)" fill="#f2f2f2"/>
    <g id="Group_25" data-name="Group 25" opacity="0.5">
      <circle id="Ellipse_115" data-name="Ellipse 115" cx="81.15" cy="81.15" r="81.15" transform="translate(118.11 0)" fill="url(#linear-gradient)"/>
    </g>
    <circle id="Ellipse_116" data-name="Ellipse 116" cx="72.31" cy="72.31" r="72.31" transform="translate(126.95 8.84)" fill="#fccc63"/>
  </g>
</svg>
