<svg xmlns="http://www.w3.org/2000/svg" width="499.6" height="499.6" viewBox="0 0 499.6 499.6">
  <g id="crescent-moon-svgrepo-com" opacity="0.5">
    <circle id="Ellipse_6" data-name="Ellipse 6" cx="249.6" cy="249.6" r="249.6" transform="translate(0 0.4)" fill="#063f66"/>
    <path id="Path_146" data-name="Path 146" d="M72.8,73.2c97.6-97.6,256-97.6,353.6,0s97.6,256,0,353.6" fill="#022730"/>
    <g id="Group_11" data-name="Group 11">
      <ellipse id="Ellipse_7" data-name="Ellipse 7" cx="2.4" cy="21.6" rx="2.4" ry="21.6" transform="translate(131.2 403.6)" fill="#dcf9f6"/>
      <ellipse id="Ellipse_8" data-name="Ellipse 8" cx="21.6" cy="2.4" rx="21.6" ry="2.4" transform="translate(112 423.6)" fill="#dcf9f6"/>
      <ellipse id="Ellipse_9" data-name="Ellipse 9" cx="21.6" cy="2.4" rx="21.6" ry="2.4" transform="matrix(0.705, -0.709, 0.709, 0.705, 409.534, 164.599)" fill="#dcf9f6"/>
      <ellipse id="Ellipse_10" data-name="Ellipse 10" cx="21.6" cy="2.4" rx="21.6" ry="2.4" transform="matrix(0.705, 0.709, -0.709, 0.705, 412.688, 134.24)" fill="#dcf9f6"/>
      <ellipse id="Ellipse_11" data-name="Ellipse 11" cx="0.8" cy="9.6" rx="0.8" ry="9.6" transform="translate(365.6 74.8)" fill="#dcf9f6"/>
      <ellipse id="Ellipse_12" data-name="Ellipse 12" cx="9.6" cy="0.8" rx="9.6" ry="0.8" transform="translate(356.8 83.6)" fill="#dcf9f6"/>
      <ellipse id="Ellipse_13" data-name="Ellipse 13" cx="10.4" cy="0.8" rx="10.4" ry="0.8" transform="translate(185.215 110.792) rotate(-135.292)" fill="#dcf9f6"/>
      <ellipse id="Ellipse_14" data-name="Ellipse 14" cx="10.4" cy="0.8" rx="10.4" ry="0.8" transform="translate(170.537 109.489) rotate(-44.708)" fill="#dcf9f6"/>
      <ellipse id="Ellipse_15" data-name="Ellipse 15" cx="10.4" cy="0.8" rx="10.4" ry="0.8" transform="matrix(-0.709, -0.705, 0.705, -0.709, 103.378, 373.345)" fill="#dcf9f6"/>
      <ellipse id="Ellipse_16" data-name="Ellipse 16" cx="10.4" cy="0.8" rx="10.4" ry="0.8" transform="matrix(0.709, -0.705, 0.705, 0.709, 89.2, 371.965)" fill="#dcf9f6"/>
      <ellipse id="Ellipse_17" data-name="Ellipse 17" cx="4.8" cy="0.8" rx="4.8" ry="0.8" transform="matrix(0.7, -0.714, 0.714, 0.7, 299.475, 77.746)" fill="#dcf9f6"/>
      <ellipse id="Ellipse_18" data-name="Ellipse 18" cx="4.8" cy="0.8" rx="4.8" ry="0.8" transform="matrix(0.7, 0.714, -0.714, 0.7, 300.719, 71.253)" fill="#dcf9f6"/>
      <ellipse id="Ellipse_19" data-name="Ellipse 19" cx="4.8" cy="0.8" rx="4.8" ry="0.8" transform="translate(211.547 449.574) rotate(-45.292)" fill="#dcf9f6"/>
      <ellipse id="Ellipse_20" data-name="Ellipse 20" cx="4.8" cy="0.8" rx="4.8" ry="0.8" transform="translate(212.995 443.238) rotate(45.292)" fill="#dcf9f6"/>
      <circle id="Ellipse_21" data-name="Ellipse 21" cx="160" cy="160" r="160" transform="translate(89.6 90)" fill="#dcf9f6"/>
    </g>
    <path id="Path_147" data-name="Path 147" d="M249.6,410c-88,0-160-72-160-160s72-160,160-160" fill="#95bfb9"/>
    <path id="Path_148" data-name="Path 148" d="M249.6,410c-88,0-112-72-112-160s23.2-160,112-160" fill="#caede7"/>
    <g id="Group_12" data-name="Group 12">
      <circle id="Ellipse_22" data-name="Ellipse 22" cx="9.6" cy="9.6" r="9.6" transform="translate(128.8 155.6)" fill="#78a8a0"/>
      <circle id="Ellipse_23" data-name="Ellipse 23" cx="1.6" cy="1.6" r="1.6" transform="translate(123.2 199.6)" fill="#78a8a0"/>
    </g>
    <g id="Group_13" data-name="Group 13">
      <circle id="Ellipse_24" data-name="Ellipse 24" cx="29.6" cy="29.6" r="29.6" transform="translate(160 192.4)" fill="#dcf9f6"/>
      <circle id="Ellipse_25" data-name="Ellipse 25" cx="8" cy="8" r="8" transform="translate(194.4 149.2)" fill="#dcf9f6"/>
    </g>
    <circle id="Ellipse_26" data-name="Ellipse 26" cx="2.4" cy="2.4" r="2.4" transform="translate(255.2 150.8)" fill="#c3e5e0"/>
    <circle id="Ellipse_27" data-name="Ellipse 27" cx="2.4" cy="2.4" r="2.4" transform="translate(276 123.6)" fill="#78a8a0"/>
    <circle id="Ellipse_28" data-name="Ellipse 28" cx="4" cy="4" r="4" transform="translate(197.6 123.6)" fill="#dcf9f6"/>
    <circle id="Ellipse_29" data-name="Ellipse 29" cx="1.6" cy="1.6" r="1.6" transform="translate(232 112.4)" fill="#95bfb9"/>
    <g id="Group_14" data-name="Group 14">
      <circle id="Ellipse_30" data-name="Ellipse 30" cx="6.4" cy="6.4" r="6.4" transform="translate(264 199.6)" fill="#c3e5e0"/>
      <circle id="Ellipse_31" data-name="Ellipse 31" cx="4" cy="4" r="4" transform="translate(314.4 198)" fill="#c3e5e0"/>
      <circle id="Ellipse_32" data-name="Ellipse 32" cx="6.4" cy="6.4" r="6.4" transform="translate(322.4 150)" fill="#c3e5e0"/>
      <circle id="Ellipse_33" data-name="Ellipse 33" cx="17.6" cy="17.6" r="17.6" transform="translate(283.2 267.6)" fill="#c3e5e0"/>
    </g>
    <g id="Group_15" data-name="Group 15">
      <circle id="Ellipse_34" data-name="Ellipse 34" cx="5.6" cy="5.6" r="5.6" transform="translate(150.4 290)" fill="#dcf9f6"/>
      <circle id="Ellipse_35" data-name="Ellipse 35" cx="2.4" cy="2.4" r="2.4" transform="translate(211.2 269.2)" fill="#dcf9f6"/>
      <circle id="Ellipse_36" data-name="Ellipse 36" cx="9.6" cy="9.6" r="9.6" transform="translate(232 322)" fill="#dcf9f6"/>
    </g>
    <circle id="Ellipse_37" data-name="Ellipse 37" cx="6.4" cy="6.4" r="6.4" transform="translate(118.4 248.4)" fill="#78a8a0"/>
    <circle id="Ellipse_38" data-name="Ellipse 38" cx="1.6" cy="1.6" r="1.6" transform="translate(265.6 249.2)" fill="#c3e5e0"/>
    <circle id="Ellipse_39" data-name="Ellipse 39" cx="4" cy="4" r="4" transform="translate(340 250)" fill="#95bfb9"/>
    <g id="Group_16" data-name="Group 16">
      <circle id="Ellipse_40" data-name="Ellipse 40" cx="9.6" cy="9.6" r="9.6" transform="translate(164.8 330)" fill="#dcf9f6"/>
      <circle id="Ellipse_41" data-name="Ellipse 41" cx="3.2" cy="3.2" r="3.2" transform="translate(190.4 302)" fill="#dcf9f6"/>
    </g>
    <circle id="Ellipse_42" data-name="Ellipse 42" cx="3.2" cy="3.2" r="3.2" transform="translate(289.6 339.6)" fill="#c3e5e0"/>
    <g id="Group_17" data-name="Group 17">
      <circle id="Ellipse_43" data-name="Ellipse 43" cx="2.4" cy="2.4" r="2.4" transform="translate(239.2 366.8)" fill="#95bfb9"/>
      <circle id="Ellipse_44" data-name="Ellipse 44" cx="1.6" cy="1.6" r="1.6" transform="translate(200 363.6)" fill="#95bfb9"/>
      <circle id="Ellipse_45" data-name="Ellipse 45" cx="6.4" cy="6.4" r="6.4" transform="translate(326.4 322)" fill="#95bfb9"/>
    </g>
    <circle id="Ellipse_46" data-name="Ellipse 46" cx="4" cy="4" r="4" transform="translate(280 371.6)" fill="#c3e5e0"/>
    <circle id="Ellipse_47" data-name="Ellipse 47" cx="3.2" cy="3.2" r="3.2" transform="translate(242.4 286)" fill="#dcf9f6"/>
    <circle id="Ellipse_48" data-name="Ellipse 48" cx="6.4" cy="6.4" r="6.4" transform="translate(347.2 294)" fill="#95bfb9"/>
    <circle id="Ellipse_49" data-name="Ellipse 49" cx="5.6" cy="5.6" r="5.6" transform="translate(128.8 318)" fill="#78a8a0"/>
    <circle id="Ellipse_50" data-name="Ellipse 50" cx="7.2" cy="7.2" r="7.2" transform="translate(302.4 234)" fill="#c3e5e0"/>
  </g>
</svg>
