<svg id="Ship" xmlns="http://www.w3.org/2000/svg" width="551.79" height="390.879" viewBox="0 0 551.79 390.879">
  <g id="ship-body">
    <rect id="Rectangle_36" data-name="Rectangle 36" width="246.148" height="106.828" transform="translate(153.499 67.029)" fill="#464353"/>
    <g id="Group_34" data-name="Group 34" transform="translate(169.579 88.499)" opacity="0.5">
      <rect id="Rectangle_37" data-name="Rectangle 37" width="51.951" height="35.086" fill="#6c63ff"/>
      <rect id="Rectangle_38" data-name="Rectangle 38" width="51.951" height="35.086" transform="translate(85.966)" fill="#6c63ff"/>
      <rect id="Rectangle_39" data-name="Rectangle 39" width="51.951" height="35.086" transform="translate(171.932)" fill="#6c63ff"/>
    </g>
    <path id="Path_354" data-name="Path 354" d="M712.635,353.785c.034,114.829-109.913,207.924-245.529,207.9H172.1v-207.9Z" transform="translate(-160.846 -208.73)" fill="#464353"/>
    <path id="Path_355" data-name="Path 355" d="M712.635,353.785a177.883,177.883,0,0,1-4.867,41.37H172.1v-41.37Z" transform="translate(-160.846 -208.73)" fill="#6c63ff"/>
    <path id="Path_356" data-name="Path 356" d="M657.342,604.785a237.335,237.335,0,0,1-53.7,41.37H172.1v-41.37Z" transform="translate(-160.845 -328.29)" fill="#6c63ff"/>
    <g id="Group_36" data-name="Group 36" transform="translate(287.705 209.466)" opacity="0.5">
      <rect id="Rectangle_43" data-name="Rectangle 43" width="51.951" height="35.086" fill="#6c63ff"/>
      <rect id="Rectangle_44" data-name="Rectangle 44" width="51.951" height="35.086" transform="translate(85.966)" fill="#6c63ff"/>
      <rect id="Rectangle_45" data-name="Rectangle 45" width="51.951" height="35.086" transform="translate(171.932)" fill="#6c63ff"/>
    </g>
    <g id="Group_35" data-name="Group 35" transform="translate(31.662 209.466)" opacity="0.5">
      <rect id="Rectangle_40" data-name="Rectangle 40" width="51.951" height="35.086" fill="#6c63ff"/>
      <rect id="Rectangle_41" data-name="Rectangle 41" width="51.951" height="35.086" transform="translate(85.966)" fill="#6c63ff"/>
      <rect id="Rectangle_42" data-name="Rectangle 42" width="51.951" height="35.086" transform="translate(171.932)" fill="#6c63ff"/>
    </g>
    <rect id="Rectangle_35" data-name="Rectangle 35" width="8.658" height="71.219" transform="translate(270.388)" fill="#6c63ff"/>
    <g id="Flag">
      <path id="Path_357" data-name="Path 357" d="M602.426,76.785s82.255,2.618,94.625,0c0,0-8.04,13.092,0,20.947s-6.185,14.663-6.185,14.663H598.1Z" transform="translate(-323.38 -76.785)" fill="#6c63ff"/>
      <text id="Welcome_to_Jadool" data-name="Welcome to Jadool" transform="translate(270 1.45)" fill="#fff" font-size="14" font-family="Roboto-Regular, Roboto"><tspan x="12.045" y="13">Welcome to </tspan><tspan x="27.699" y="30">Jadool</tspan></text>
    </g>
  </g>
  <rect id="Rectangle_46" data-name="Rectangle 46" width="462.877" height="5.607" rx="2.803" transform="translate(0 348.827)" fill="#6c63ff"/>
  <rect id="Rectangle_47" data-name="Rectangle 47" width="171.51" height="5.607" rx="2.803" transform="translate(0 359.48)" fill="#6c63ff"/>
  <rect id="Rectangle_48" data-name="Rectangle 48" width="171.51" height="5.607" rx="2.803" transform="translate(131.778 372.376)" fill="#6c63ff"/>
  <rect id="Rectangle_49" data-name="Rectangle 49" width="171.51" height="5.607" rx="2.803" transform="translate(274.813 385.272)" fill="#6c63ff"/>
  <rect id="Rectangle_50" data-name="Rectangle 50" width="30.461" height="5.607" rx="2.803" transform="translate(480.757 348.827)" fill="#6c63ff"/>
  <rect id="Rectangle_51" data-name="Rectangle 51" width="30.461" height="5.607" rx="2.803" transform="translate(306.598 359.48)" fill="#6c63ff"/>
  <rect id="Rectangle_52" data-name="Rectangle 52" width="30.461" height="5.607" rx="2.803" transform="translate(43.705 372.376)" fill="#6c63ff"/>
  <rect id="Rectangle_53" data-name="Rectangle 53" width="30.461" height="5.607" rx="2.803" transform="translate(337.722 372.376)" fill="#6c63ff"/>
  <rect id="Rectangle_54" data-name="Rectangle 54" width="171.51" height="5.607" rx="2.803" transform="translate(24.501 385.272)" fill="#6c63ff"/>
</svg>
